# xmcd CD database file
#
# Track frame offsets:
#	150
#	19492
#	38845
#
# Disc length: 774 seconds
#
# Revision: 2
# Processed by: cddbd v1.5PL3 Copyright (c) Steve Scherf et al.
# Submitted via: CDex 1.51
#
DISCID=1f030403
DTITLE=Ring - Process
DYEAR=1998
DGENRE=JPop
TTITLE0=Process -Japanese version
TTITLE1=Process -Mandarin version
TTITLE2=Process -Instrumental
EXTD=YEAR: 1998
EXTT0=
EXTT1=
EXTT2=
PLAYORDER=
